<svg width="40" height="40" viewBox="0 0 40 40" fill="none" xmlns="http://www.w3.org/2000/svg">
<path d="M6.12004 16.4201C6.73073 15.679 9.52132 11.0138 11 8.5L17 16.5C13.6094 16.3459 7.08359 16.1348 6.12004 16.4201C6.04241 16.5143 6 16.5451 6 16.5C6 16.4699 6.04158 16.4434 6.12004 16.4201Z" fill="white"/>
<path d="M28.5 9L24 7.5L21.5 10L28.5 17L35 10.5L32.5 7.5L28.5 9Z" fill="white"/>
<path d="M24 24H33V34H24V24Z" fill="white"/>
<path d="M18 29L12 35L6 29L12 24L18 29Z" fill="white"/>
<path d="M11.7002 22.5C8.01683 22.5 5.0335 25.4834 5.0335 29.1667C5.0335 32.85 8.01683 35.8334 11.7002 35.8334C15.3835 35.8334 18.3668 32.85 18.3668 29.1667C18.3668 25.4834 15.3835 22.5 11.7002 22.5ZM11.7002 32.5C9.86683 32.5 8.36683 31 8.36683 29.1667C8.36683 27.3334 9.86683 25.8334 11.7002 25.8334C13.5335 25.8334 15.0335 27.3334 15.0335 29.1667C15.0335 31 13.5335 32.5 11.7002 32.5ZM21.6668 22.5V35.8334H35.0002V22.5H21.6668ZM31.6668 32.5H25.0002V25.8334H31.6668V32.5ZM11.6668 4.16669L3.3335 19.1667H20.0002L11.6668 4.16669ZM11.6668 11.0334L14.3335 15.8334H9.00016L11.6668 11.0334ZM32.0835 5.00002C30.3168 5.00002 29.0668 5.93335 28.3335 6.95002C27.6002 5.93335 26.3502 5.00002 24.5835 5.00002C21.9835 5.00002 20.0002 7.13335 20.0002 9.58335C20.0002 12.9167 24.0335 15.2834 28.3335 19.1667C32.6335 15.2834 36.6668 12.9167 36.6668 9.58335C36.6668 7.13335 34.6835 5.00002 32.0835 5.00002ZM28.3335 14.75C25.9168 12.7167 23.3335 10.75 23.3335 9.58335C23.3335 8.86669 23.9168 8.33335 24.5835 8.33335C25.1002 8.33335 25.4502 8.61669 25.8002 8.95002L28.3335 11.3334L30.8668 8.95002C31.2168 8.61669 31.5668 8.33335 32.0835 8.33335C32.7502 8.33335 33.3335 8.86669 33.3335 9.58335C33.3335 10.75 30.7502 12.7167 28.3335 14.75Z" fill="#59A5F5"/>
</svg>
