<svg width="40" height="40" viewBox="0 0 40 40" fill="none" xmlns="http://www.w3.org/2000/svg">
<path d="M5.5 19.5L20 33.5L31 23.5L35 13L28.5 7L20 10L12 7L5.5 11.5V19.5Z" fill="white"/>
<path d="M32.7669 6.94528C28.3669 3.94528 22.9335 5.34528 20.0002 8.77861C17.0669 5.34528 11.6335 3.92861 7.23353 6.94528C4.90019 8.54528 3.43353 11.2453 3.33353 14.0953C3.10019 20.5619 8.83353 25.7453 17.5835 33.6953L17.7502 33.8453C19.0169 34.9953 20.9669 34.9953 22.2335 33.8286L22.4169 33.6619C31.1669 25.7286 36.8835 20.5453 36.6669 14.0786C36.5669 11.2453 35.1002 8.54528 32.7669 6.94528ZM20.1669 31.2119L20.0002 31.3786L19.8335 31.2119C11.9002 24.0286 6.66686 19.2786 6.66686 14.4619C6.66686 11.1286 9.16686 8.62861 12.5002 8.62861C15.0669 8.62861 17.5669 10.2786 18.4502 12.5619H21.5669C22.4335 10.2786 24.9335 8.62861 27.5002 8.62861C30.8335 8.62861 33.3335 11.1286 33.3335 14.4619C33.3335 19.2786 28.1002 24.0286 20.1669 31.2119Z" fill="#59A5F5"/>
</svg>
