<svg width="40" height="40" viewBox="0 0 40 40" fill="none" xmlns="http://www.w3.org/2000/svg">
<rect x="15" y="11" width="11" height="22" fill="white"/>
<path d="M26.1165 6.66671H23.3332V5.00004C23.3332 4.08337 22.5832 3.33337 21.6665 3.33337H18.3332C17.4165 3.33337 16.6665 4.08337 16.6665 5.00004V6.66671H13.8832C12.6665 6.66671 11.6665 7.66671 11.6665 8.88337V34.4334C11.6665 35.6667 12.6665 36.6667 13.8998 36.6667H26.0998C27.3332 36.6667 28.3332 35.6667 28.3332 34.45V8.88337C28.3332 7.66671 27.3332 6.66671 26.1165 6.66671ZM24.3498 22.0667L19.8998 30.4C19.4998 31.15 18.3332 30.8667 18.3332 30V24.1667H16.3832C15.7498 24.1667 15.3498 23.5 15.6498 22.9334L20.0998 14.6C20.4998 13.85 21.6665 14.1334 21.6665 15V20.8334H23.6165C24.2332 20.8334 24.6498 21.5 24.3498 22.0667Z" fill="#59A5F5"/>
</svg>
