<svg width="40" height="40" viewBox="0 0 40 40" fill="none" xmlns="http://www.w3.org/2000/svg">
<path d="M21 5L27 6.5L35 5.5L36.5 10L27 18.5L19 9.5L21 5Z" fill="white"/>
<path d="M15 20L3.5 19.5L4.5 34.5H9L11.5 32.5L23.5 35.5L32.5 33L36 29.5L28 27L26.5 24.5L15 20Z" fill="white"/>
<path d="M27.5 21.25C32.65 16.5667 37.5 12.1834 37.5 8.41669C37.5 5.33335 35.0833 2.91669 32 2.91669C30.2667 2.91669 28.5833 3.73335 27.5 5.00002C26.4 3.73335 24.7333 2.91669 23 2.91669C19.9167 2.91669 17.5 5.33335 17.5 8.41669C17.5 12.1834 22.35 16.5667 27.5 21.25ZM23 6.25002C23.7333 6.25002 24.4833 6.60002 24.9667 7.16669L27.5 10.15L30.0333 7.16669C30.5167 6.60002 31.2667 6.25002 32 6.25002C33.2333 6.25002 34.1667 7.18335 34.1667 8.41669C34.1667 10.2834 30.7667 13.7 27.5 16.7334C24.2333 13.7 20.8333 10.2667 20.8333 8.41669C20.8333 7.18335 21.7667 6.25002 23 6.25002Z" fill="#59A5F5"/>
<path d="M32.5 26.25H29.1667C29.1667 24.25 27.9167 22.45 26.05 21.75L15.7833 17.9167H2.5V36.25H12.5V33.85L24.1667 37.0834L37.5 32.9167V31.25C37.5 28.4834 35.2667 26.25 32.5 26.25ZM5.83333 32.9167V21.25H9.16667V32.9167H5.83333ZM24.1167 33.6L12.5 30.3834V21.25H15.1833L24.8833 24.8667C25.45 25.0834 25.8333 25.6334 25.8333 26.25C25.8333 26.25 22.5167 26.1667 22 26L18.0333 24.6834L16.9833 27.85L20.95 29.1667C21.8 29.45 22.6833 29.6 23.5833 29.6H32.5C33.15 29.6 33.7333 29.9834 34 30.5334L24.1167 33.6Z" fill="#59A5F5"/>
</svg>
