<svg width="40" height="40" viewBox="0 0 40 40" fill="none" xmlns="http://www.w3.org/2000/svg">
<path d="M6 11H15V5.5H24.5L25 11H34V34H6V11Z" fill="white"/>
<path d="M33.3335 10H26.6668V6.66671C26.6668 4.83337 25.1668 3.33337 23.3335 3.33337H16.6668C14.8335 3.33337 13.3335 4.83337 13.3335 6.66671V10H6.66683C4.8335 10 3.3335 11.5 3.3335 13.3334V33.3334C3.3335 35.1667 4.8335 36.6667 6.66683 36.6667H33.3335C35.1668 36.6667 36.6668 35.1667 36.6668 33.3334V13.3334C36.6668 11.5 35.1668 10 33.3335 10ZM16.6668 6.66671H23.3335V10H16.6668V6.66671ZM33.3335 33.3334H6.66683V13.3334H33.3335V33.3334Z" fill="#59A5F5"/>
<path d="M21.6668 16.6667H18.3335V21.6667H13.3335V25H18.3335V30H21.6668V25H26.6668V21.6667H21.6668V16.6667Z" fill="#59A5F5"/>
</svg>
