<svg width="40" height="40" viewBox="0 0 40 40" fill="none" xmlns="http://www.w3.org/2000/svg">
<circle cx="20" cy="20" r="15" fill="white"/>
<path d="M25.8335 18.3334C27.2142 18.3334 28.3335 17.2141 28.3335 15.8334C28.3335 14.4527 27.2142 13.3334 25.8335 13.3334C24.4528 13.3334 23.3335 14.4527 23.3335 15.8334C23.3335 17.2141 24.4528 18.3334 25.8335 18.3334Z" fill="#59A5F5"/>
<path d="M14.1668 18.3334C15.5475 18.3334 16.6668 17.2141 16.6668 15.8334C16.6668 14.4527 15.5475 13.3334 14.1668 13.3334C12.7861 13.3334 11.6668 14.4527 11.6668 15.8334C11.6668 17.2141 12.7861 18.3334 14.1668 18.3334Z" fill="#59A5F5"/>
<path d="M19.9835 3.33337C10.7835 3.33337 3.3335 10.8 3.3335 20C3.3335 29.2 10.7835 36.6667 19.9835 36.6667C29.2002 36.6667 36.6668 29.2 36.6668 20C36.6668 10.8 29.2002 3.33337 19.9835 3.33337ZM20.0002 33.3334C12.6335 33.3334 6.66683 27.3667 6.66683 20C6.66683 12.6334 12.6335 6.66671 20.0002 6.66671C27.3668 6.66671 33.3335 12.6334 33.3335 20C33.3335 27.3667 27.3668 33.3334 20.0002 33.3334ZM27.3502 23.15C26.7668 22.7834 25.9835 22.9667 25.6335 23.55C24.4002 25.5 22.3002 26.6667 20.0002 26.6667C17.7002 26.6667 15.6002 25.5 14.3668 23.5334C14.0002 22.95 13.2335 22.7667 12.6502 23.1334C12.0668 23.5 11.8835 24.2667 12.2502 24.85C13.9502 27.5667 16.8335 29.1667 20.0002 29.1667C23.1668 29.1667 26.0502 27.55 27.7502 24.8667C28.1168 24.2834 27.9335 23.5167 27.3502 23.15Z" fill="#59A5F5"/>
</svg>
