<svg width="40" height="40" viewBox="0 0 40 40" fill="none" xmlns="http://www.w3.org/2000/svg">
<path d="M17.5 17L18.5 12L15.5 11L11.5 11.5V17H17.5Z" fill="white"/>
<path d="M24.5 29L20.5 25.5L11.5 25L6 28.5L24.5 29Z" fill="white"/>
<path d="M15.0002 22.9167C11.1002 22.9167 3.3335 24.8667 3.3335 28.75V31.6667H26.6668V28.75C26.6668 24.8667 18.9002 22.9167 15.0002 22.9167ZM7.2335 28.3334C8.6335 27.3667 12.0168 26.25 15.0002 26.25C17.9835 26.25 21.3668 27.3667 22.7668 28.3334H7.2335ZM15.0002 20C18.2168 20 20.8335 17.3834 20.8335 14.1667C20.8335 10.95 18.2168 8.33337 15.0002 8.33337C11.7835 8.33337 9.16683 10.95 9.16683 14.1667C9.16683 17.3834 11.7835 20 15.0002 20ZM15.0002 11.6667C16.3835 11.6667 17.5002 12.7834 17.5002 14.1667C17.5002 15.55 16.3835 16.6667 15.0002 16.6667C13.6168 16.6667 12.5002 15.55 12.5002 14.1667C12.5002 12.7834 13.6168 11.6667 15.0002 11.6667ZM26.7335 23.0167C28.6668 24.4167 30.0002 26.2834 30.0002 28.75V31.6667H36.6668V28.75C36.6668 25.3834 30.8335 23.4667 26.7335 23.0167ZM25.0002 20C28.2168 20 30.8335 17.3834 30.8335 14.1667C30.8335 10.95 28.2168 8.33337 25.0002 8.33337C24.1002 8.33337 23.2668 8.55004 22.5002 8.91671C23.5502 10.4 24.1668 12.2167 24.1668 14.1667C24.1668 16.1167 23.5502 17.9334 22.5002 19.4167C23.2668 19.7834 24.1002 20 25.0002 20Z" fill="#59A5F5"/>
</svg>
