<svg width="68" height="68" viewBox="0 0 68 68" fill="none" xmlns="http://www.w3.org/2000/svg">
<path d="M10.404 27.9142C11.4422 26.6544 16.1862 18.7234 18.7 14.45L28.9 28.05C23.136 27.788 12.0421 27.4291 10.404 27.9142C10.272 28.0744 10.2 28.1267 10.2 28.05C10.2 27.9988 10.2706 27.9537 10.404 27.9142Z" fill="white"/>
<path d="M48.45 15.3L40.7999 12.75L36.5499 17L48.45 28.9L59.5 17.85L55.25 12.75L48.45 15.3Z" fill="white"/>
<path d="M40.7999 40.8H56.0999V57.8H40.7999V40.8Z" fill="white"/>
<path d="M30.6 49.3L20.4 59.5L10.2 49.3L20.4 40.8L30.6 49.3Z" fill="white"/>
<path d="M19.8901 38.25C13.6284 38.25 8.55675 43.3217 8.55675 49.5834C8.55675 55.845 13.6284 60.9167 19.8901 60.9167C26.1517 60.9167 31.2234 55.845 31.2234 49.5834C31.2234 43.3217 26.1517 38.25 19.8901 38.25ZM19.8901 55.25C16.7734 55.25 14.2234 52.7 14.2234 49.5834C14.2234 46.4667 16.7734 43.9167 19.8901 43.9167C23.0067 43.9167 25.5567 46.4667 25.5567 49.5834C25.5567 52.7 23.0067 55.25 19.8901 55.25ZM36.8334 38.25V60.9167H59.5001V38.25H36.8334ZM53.8334 55.25H42.5001V43.9167H53.8334V55.25ZM19.8334 7.08337L5.66675 32.5834H34.0001L19.8334 7.08337ZM19.8334 18.7567L24.3667 26.9167H15.3001L19.8334 18.7567ZM54.5417 8.50004C51.5384 8.50004 49.4134 10.0867 48.1667 11.815C46.9201 10.0867 44.7951 8.50004 41.7917 8.50004C37.3717 8.50004 34.0001 12.1267 34.0001 16.2917C34.0001 21.9584 40.8567 25.9817 48.1667 32.5834C55.4767 25.9817 62.3334 21.9584 62.3334 16.2917C62.3334 12.1267 58.9617 8.50004 54.5417 8.50004ZM48.1667 25.075C44.0584 21.6184 39.6667 18.275 39.6667 16.2917C39.6667 15.0734 40.6584 14.1667 41.7917 14.1667C42.6701 14.1667 43.2651 14.6484 43.8601 15.215L48.1667 19.2667L52.4734 15.215C53.0684 14.6484 53.6634 14.1667 54.5417 14.1667C55.6751 14.1667 56.6667 15.0734 56.6667 16.2917C56.6667 18.275 52.2751 21.6184 48.1667 25.075Z" fill="#F7A1A4"/>
</svg>
