<svg width="68" height="68" viewBox="0 0 68 68" fill="none" xmlns="http://www.w3.org/2000/svg">
<path d="M9.3501 33.15L34.0001 56.95L52.7001 39.95L59.5001 22.1L48.4501 11.9L34.0001 17L20.4001 11.9L9.3501 19.55V33.15Z" fill="white"/>
<path d="M55.7043 11.8071C48.2243 6.7071 38.9877 9.0871 34.001 14.9238C29.0143 9.0871 19.7777 6.67876 12.2977 11.8071C8.33101 14.5271 5.83768 19.1171 5.66768 23.9621C5.27101 34.9554 15.0177 43.7671 29.8927 57.2821L30.176 57.5371C32.3293 59.4921 35.6443 59.4921 37.7977 57.5088L38.1093 57.2254C52.9843 43.7388 62.7027 34.9271 62.3343 23.9338C62.1643 19.1171 59.671 14.5271 55.7043 11.8071ZM34.2843 53.0604L34.001 53.3438L33.7177 53.0604C20.231 40.8488 11.3343 32.7738 11.3343 24.5854C11.3343 18.9188 15.5843 14.6688 21.251 14.6688C25.6143 14.6688 29.8643 17.4738 31.366 21.3554H36.6643C38.1377 17.4738 42.3877 14.6688 46.751 14.6688C52.4177 14.6688 56.6677 18.9188 56.6677 24.5854C56.6677 32.7738 47.771 40.8488 34.2843 53.0604Z" fill="#F7A1A4"/>
</svg>
