<svg width="68" height="68" viewBox="0 0 68 68" fill="none" xmlns="http://www.w3.org/2000/svg">
<rect x="25.5" y="18.7" width="18.7" height="37.4" fill="white"/>
<path d="M44.3984 11.3334H39.6667V8.50008C39.6667 6.94175 38.3917 5.66675 36.8334 5.66675H31.1667C29.6084 5.66675 28.3334 6.94175 28.3334 8.50008V11.3334H23.6017C21.5334 11.3334 19.8334 13.0334 19.8334 15.1017V58.5367C19.8334 60.6334 21.5334 62.3334 23.63 62.3334H44.37C46.4667 62.3334 48.1667 60.6334 48.1667 58.5651V15.1017C48.1667 13.0334 46.4667 11.3334 44.3984 11.3334ZM41.395 37.5134L33.83 51.6801C33.15 52.9551 31.1667 52.4734 31.1667 51.0001V41.0834H27.8517C26.775 41.0834 26.095 39.9501 26.605 38.9867L34.17 24.8201C34.85 23.5451 36.8334 24.0267 36.8334 25.5001V35.4167H40.1484C41.1967 35.4167 41.905 36.5501 41.395 37.5134Z" fill="#F7A1A4"/>
</svg>
