<svg width="68" height="68" viewBox="0 0 68 68" fill="none" xmlns="http://www.w3.org/2000/svg">
<path d="M35.6999 8.5L45.8999 11.05L59.5 9.35L62.0499 17L45.8999 31.45L32.2999 16.15L35.6999 8.5Z" fill="white"/>
<path d="M25.5 34L5.94995 33.15L7.64995 58.65H15.3L19.55 55.25L39.95 60.35L55.25 56.1L61.1999 50.15L47.5999 45.9L45.0499 41.65L25.5 34Z" fill="white"/>
<path d="M46.75 36.1249C55.505 28.1633 63.75 20.7116 63.75 14.3083C63.75 9.06659 59.6417 4.95825 54.4 4.95825C51.4533 4.95825 48.5917 6.34659 46.75 8.49992C44.88 6.34659 42.0467 4.95825 39.1 4.95825C33.8583 4.95825 29.75 9.06659 29.75 14.3083C29.75 20.7116 37.995 28.1633 46.75 36.1249ZM39.1 10.6249C40.3467 10.6249 41.6217 11.2199 42.4433 12.1833L46.75 17.2549L51.0567 12.1833C51.8783 11.2199 53.1533 10.6249 54.4 10.6249C56.4967 10.6249 58.0833 12.2116 58.0833 14.3083C58.0833 17.4816 52.3033 23.2899 46.75 28.4466C41.1967 23.2899 35.4167 17.4533 35.4167 14.3083C35.4167 12.2116 37.0033 10.6249 39.1 10.6249Z" fill="#F7A1A4"/>
<path d="M55.25 44.6249H49.5833C49.5833 41.2249 47.4583 38.1649 44.285 36.9749L26.8317 30.4583H4.25V61.6249H21.25V57.5449L41.0833 63.0416L63.75 55.9583V53.1249C63.75 48.4216 59.9533 44.6249 55.25 44.6249ZM9.91667 55.9583V36.1249H15.5833V55.9583H9.91667ZM40.9983 57.1199L21.25 51.6516V36.1249H25.8117L42.3017 42.2733C43.265 42.6416 43.9167 43.5766 43.9167 44.6249C43.9167 44.6249 38.2783 44.4833 37.4 44.1999L30.6567 41.9616L28.8717 47.3449L35.615 49.5833C37.06 50.0649 38.5617 50.3199 40.0917 50.3199H55.25C56.355 50.3199 57.3467 50.9716 57.8 51.9066L40.9983 57.1199Z" fill="#F7A1A4"/>
</svg>
