<svg width="68" height="68" viewBox="0 0 68 68" fill="none" xmlns="http://www.w3.org/2000/svg">
<circle cx="33.5" cy="34.5" r="25.5" fill="#F5F5F5"/>
<path d="M43.9165 31.1667C46.2637 31.1667 48.1665 29.264 48.1665 26.9167C48.1665 24.5695 46.2637 22.6667 43.9165 22.6667C41.5693 22.6667 39.6665 24.5695 39.6665 26.9167C39.6665 29.264 41.5693 31.1667 43.9165 31.1667Z" fill="#F7A1A4"/>
<path d="M24.0832 31.1667C26.4304 31.1667 28.3332 29.264 28.3332 26.9167C28.3332 24.5695 26.4304 22.6667 24.0832 22.6667C21.736 22.6667 19.8332 24.5695 19.8332 26.9167C19.8332 29.264 21.736 31.1667 24.0832 31.1667Z" fill="#F7A1A4"/>
<path d="M33.9715 5.66675C18.3315 5.66675 5.6665 18.3601 5.6665 34.0001C5.6665 49.6401 18.3315 62.3334 33.9715 62.3334C49.6398 62.3334 62.3332 49.6401 62.3332 34.0001C62.3332 18.3601 49.6398 5.66675 33.9715 5.66675ZM33.9998 56.6667C21.4765 56.6667 11.3332 46.5234 11.3332 34.0001C11.3332 21.4767 21.4765 11.3334 33.9998 11.3334C46.5232 11.3334 56.6665 21.4767 56.6665 34.0001C56.6665 46.5234 46.5232 56.6667 33.9998 56.6667ZM46.4948 39.3551C45.5032 38.7317 44.1715 39.0434 43.5765 40.0351C41.4798 43.3501 37.9098 45.3334 33.9998 45.3334C30.0898 45.3334 26.5198 43.3501 24.4232 40.0067C23.7998 39.0151 22.4965 38.7034 21.5048 39.3267C20.5132 39.9501 20.2015 41.2534 20.8248 42.2451C23.7148 46.8634 28.6165 49.5834 33.9998 49.5834C39.3832 49.5834 44.2848 46.8351 47.1748 42.2734C47.7982 41.2817 47.4865 39.9784 46.4948 39.3551Z" fill="#F7A1A4"/>
</svg>
