<svg width="68" height="68" viewBox="0 0 68 68" fill="none" xmlns="http://www.w3.org/2000/svg">
<path d="M56.1 24.65L34 12.75L11.05 25.5L17 29.75L16.15 47.6L34 56.1L50.15 46.75L51.85 29.75L56.1 24.65Z" fill="white"/>
<path d="M33.9999 8.5L2.83325 25.5L14.1666 31.6767V48.6767L33.9999 59.5L53.8332 48.6767V31.6767L59.4999 28.5883V48.1667H65.1666V25.5L33.9999 8.5ZM53.3232 25.5L33.9999 36.04L14.6766 25.5L33.9999 14.96L53.3232 25.5ZM48.1666 45.305L33.9999 53.04L19.8333 45.305V34.765L33.9999 42.5L48.1666 34.765V45.305Z" fill="#F7A1A4"/>
</svg>
