<svg width="68" height="68" viewBox="0 0 68 68" fill="none" xmlns="http://www.w3.org/2000/svg">
<path d="M29.75 28.9L31.45 20.4L26.35 18.7L19.55 19.55V28.9H29.75Z" fill="white"/>
<path d="M41.65 49.3L34.85 43.35L19.55 42.5L10.2 48.45L41.65 49.3Z" fill="white"/>
<path d="M25.4998 38.9583C18.8698 38.9583 5.6665 42.2733 5.6665 48.875V53.8333H45.3332V48.875C45.3332 42.2733 32.1298 38.9583 25.4998 38.9583ZM12.2965 48.1666C14.6765 46.5233 20.4282 44.625 25.4998 44.625C30.5715 44.625 36.3232 46.5233 38.7032 48.1666H12.2965ZM25.4998 34C30.9682 34 35.4165 29.5516 35.4165 24.0833C35.4165 18.615 30.9682 14.1666 25.4998 14.1666C20.0315 14.1666 15.5832 18.615 15.5832 24.0833C15.5832 29.5516 20.0315 34 25.4998 34ZM25.4998 19.8333C27.8515 19.8333 29.7498 21.7316 29.7498 24.0833C29.7498 26.435 27.8515 28.3333 25.4998 28.3333C23.1482 28.3333 21.2498 26.435 21.2498 24.0833C21.2498 21.7316 23.1482 19.8333 25.4998 19.8333ZM45.4465 39.1283C48.7332 41.5083 50.9998 44.6816 50.9998 48.875V53.8333H62.3332V48.875C62.3332 43.1516 52.4165 39.8933 45.4465 39.1283ZM42.4998 34C47.9682 34 52.4165 29.5516 52.4165 24.0833C52.4165 18.615 47.9682 14.1666 42.4998 14.1666C40.9698 14.1666 39.5532 14.535 38.2498 15.1583C40.0348 17.68 41.0832 20.7683 41.0832 24.0833C41.0832 27.3983 40.0348 30.4866 38.2498 33.0083C39.5532 33.6316 40.9698 34 42.4998 34Z" fill="#F7A1A4"/>
</svg>
