<svg width="703" height="703" viewBox="0 0 703 703" fill="none" xmlns="http://www.w3.org/2000/svg">
<g clip-path="url(#clip0_284_29)">
<rect width="703" height="703" rx="351.5" fill="#199493"/>
<path d="M172.973 498.704C105.573 447.1 71.4672 159.356 172.972 163.035C236.571 165.34 296.686 315.093 296.686 323.698C296.686 332.302 412.824 332.303 412.824 323.7C412.824 315.096 472.514 178.08 531.488 177.381C628.109 176.237 600.423 441.368 531.488 498.707C462.553 556.047 240.373 550.309 172.973 498.704Z" fill="#F5F5F5"/>
<path fill-rule="evenodd" clip-rule="evenodd" d="M195.145 192.662L194.484 192.05L192.566 191.399C193.429 191.792 194.288 192.214 195.145 192.662ZM251.995 260.38L252.097 260.521L252.285 260.912C252.189 260.735 252.092 260.558 251.995 260.38ZM271.984 301.88L279.717 317.963L278.798 319.055C277.571 315.717 276.108 311.922 274.428 307.781C273.658 305.884 272.843 303.914 271.984 301.88ZM139.133 223.308C139.709 221.331 140.329 219.416 140.995 217.569L139.497 220.061L139.133 223.308ZM139.83 232.751C134.527 257.792 134.806 291.254 138.217 325.879H278.067C276.589 321.495 274.432 315.672 271.683 308.895C266.109 295.158 258.121 277.545 248.467 260.116C238.806 242.676 227.511 225.481 215.335 212.538C203.12 199.552 190.243 191.081 177.429 190.585C167.213 190.189 159.286 194.107 153.17 201.367C147.001 208.691 142.644 219.463 139.83 232.751ZM172.477 187.767L176.152 185.826L183.888 188.452C181.785 187.988 179.669 187.707 177.544 187.624C175.797 187.557 174.108 187.606 172.477 187.767Z" fill="#F5F5F5"/>
<path fill-rule="evenodd" clip-rule="evenodd" d="M276.772 328.473H279.866C279.533 327.343 279.12 326.037 278.634 324.576C277.183 320.209 275.056 314.403 272.347 307.655C266.928 294.159 259.163 276.855 249.768 259.718C240.379 242.592 229.331 225.571 217.334 212.684C205.379 199.841 192.254 190.859 178.699 190.328C167.872 189.904 159.366 194.162 152.916 201.899C146.52 209.572 142.176 220.621 139.411 233.813C134.051 259.387 134.519 293.562 138.09 328.473H141.068C137.48 293.559 137.029 259.621 142.31 234.421C145.029 221.45 149.238 210.939 155.192 203.796C161.093 196.717 168.736 192.903 178.583 193.288C190.937 193.772 203.365 202.026 215.166 214.703C226.926 227.335 237.837 244.118 247.17 261.142C256.496 278.155 264.213 295.348 269.597 308.758C272.289 315.463 274.394 321.212 275.823 325.51C276.184 326.596 276.501 327.586 276.772 328.473Z" fill="#F5F5F5"/>
<path fill-rule="evenodd" clip-rule="evenodd" d="M429.182 328.567H426.071C426.408 327.493 426.825 326.249 427.318 324.854C428.769 320.751 430.894 315.296 433.6 308.957C439.012 296.281 446.768 280.028 456.151 263.931C465.528 247.845 476.564 231.855 488.548 219.749C500.497 207.677 513.596 199.258 527.097 198.761C537.873 198.364 546.358 202.346 552.81 209.625C559.21 216.845 563.556 227.242 566.321 239.647C571.677 263.682 571.209 295.787 567.645 328.567H564.665C568.249 295.784 568.697 263.931 563.429 240.291C560.719 228.129 556.524 218.281 550.593 211.59C544.713 204.957 537.074 201.358 527.206 201.721C514.84 202.177 502.424 209.942 490.653 221.833C478.917 233.69 468.026 249.442 458.711 265.423C449.401 281.393 441.699 297.533 436.324 310.12C433.638 316.414 431.537 321.809 430.112 325.842C429.759 326.839 429.449 327.749 429.182 328.567Z" fill="#F5F5F5"/>
<path fill-rule="evenodd" clip-rule="evenodd" d="M510.421 203.234L510.752 202.943L511.638 202.658C511.231 202.844 510.826 203.036 510.421 203.234ZM435.486 304.621L428.536 318.357L429.381 319.311C430.566 316.245 431.98 312.761 433.603 308.96C434.202 307.555 434.83 306.107 435.486 304.621ZM564.12 231.295C563.619 229.675 563.084 228.102 562.513 226.578L563.805 228.621L564.12 231.295ZM531.681 198.866L528.435 197.238L521.936 199.335C523.65 199.02 525.372 198.827 527.1 198.763C528.676 198.705 530.202 198.741 531.681 198.866ZM564.994 325.511H430.233C431.656 321.516 433.714 316.244 436.328 310.123C441.702 297.535 449.404 281.396 458.714 265.425C468.029 249.445 478.92 233.692 490.656 221.836C502.427 209.945 514.843 202.179 527.21 201.724C537.077 201.361 544.716 204.959 550.596 211.592C556.528 218.284 560.722 228.131 563.432 240.294C568.537 263.198 568.274 293.811 564.994 325.511Z" fill="#F5F5F5"/>
<ellipse cx="257.357" cy="396.942" rx="22.8235" ry="34.2353" fill="#199493"/>
<ellipse cx="451.356" cy="396.942" rx="22.8235" ry="34.2353" fill="#199493"/>
<path d="M354.149 448.292C344.063 448.29 323.813 402.647 328.867 396.942C333.921 391.236 376.865 391.236 381.382 396.926C385.9 402.617 364.234 448.294 354.149 448.292Z" fill="#F5F5F5"/>
<path d="M353.796 431.18C350.016 431.179 342.427 412.454 344.321 410.113C346.215 407.772 362.309 407.772 364.003 410.107C365.696 412.442 357.576 431.181 353.796 431.18Z" fill="#F5F5F5"/>
<path d="M354.35 448.294L350.964 464.092C350.086 468.19 346.465 471.117 342.273 471.117H329.093C326.498 471.117 324.033 469.984 322.345 468.014L320.114 465.412" stroke="#199493" stroke-width="2.96277"/>
<path d="M354.353 448.294L357.738 464.092C358.616 468.19 362.238 471.117 366.429 471.117H379.609C382.204 471.117 384.669 469.984 386.358 468.014L388.588 465.412" stroke="#199493" stroke-width="2.96277"/>
<path d="M201.355 454.301L245.873 475.06" stroke="#199493" stroke-width="4.09335" stroke-linecap="round"/>
<path d="M201.51 474.914L246.028 495.673" stroke="#199493" stroke-width="4.09335" stroke-linecap="round"/>
<path d="M456.935 495.819L501.453 475.06" stroke="#199493" stroke-width="4.09335" stroke-linecap="round"/>
<path d="M457.089 475.206L501.607 454.447" stroke="#199493" stroke-width="4.09335" stroke-linecap="round"/>
<circle cx="351.5" cy="351.5" r="341.5" stroke="#F7A1A4" stroke-width="20"/>
</g>
<defs>
<clipPath id="clip0_284_29">
<rect width="703" height="703" rx="351.5" fill="white"/>
</clipPath>
</defs>
</svg>
