<svg width="526" height="417" viewBox="0 0 526 417" fill="none" xmlns="http://www.w3.org/2000/svg">
<path d="M78.9514 360.087C9.4669 306.887 -25.6936 10.2428 78.9501 14.0361C144.517 16.4128 206.491 170.797 206.491 179.668C206.491 188.538 326.22 188.54 326.22 179.67C326.22 170.8 387.757 29.546 448.555 28.826C548.164 27.6464 519.622 300.978 448.555 360.09C377.487 419.203 148.436 413.288 78.9514 360.087Z" fill="#1F1F1F"/>
<path d="M79.9514 361.087C10.4669 307.886 -24.6936 11.2428 79.9501 15.0361C145.517 17.4128 207.491 171.797 207.491 180.668C207.491 189.538 327.22 189.539 327.22 180.67C327.22 171.8 388.757 30.5459 449.555 29.826C549.164 28.6464 520.622 301.977 449.555 361.09C378.487 420.203 149.436 414.288 79.9514 361.087Z" stroke="#F5F5F5" stroke-width="3.0544"/>
<path d="M188.946 256.177C188.946 265.664 186.38 274.183 182.311 280.287C178.235 286.401 172.772 289.944 166.944 289.944C161.116 289.944 155.653 286.401 151.577 280.287C147.508 274.183 144.942 265.664 144.942 256.177C144.942 246.69 147.508 238.171 151.577 232.068C155.653 225.954 161.116 222.41 166.944 222.41C172.772 222.41 178.235 225.954 182.311 232.068C186.38 238.171 188.946 246.69 188.946 256.177Z" fill="#F5F5F5" stroke="#F5F5F5" stroke-width="3.0544"/>
<path d="M388.946 256.177C388.946 265.664 386.38 274.183 382.311 280.287C378.235 286.401 372.772 289.944 366.944 289.944C361.116 289.944 355.653 286.401 351.577 280.287C347.508 274.183 344.942 265.664 344.942 256.177C344.942 246.69 347.508 238.171 351.577 232.068C355.653 225.954 361.116 222.41 366.944 222.41C372.772 222.41 378.235 225.954 382.311 232.068C386.38 238.171 388.946 246.69 388.946 256.177Z" fill="#F5F5F5" stroke="#F5F5F5" stroke-width="3.0544"/>
<path d="M266.938 309.117L263.449 325.403C262.543 329.628 258.81 332.647 254.489 332.647H240.901C238.226 332.647 235.684 331.478 233.944 329.447L231.644 326.764" stroke="#F5F5F5" stroke-width="3.0544"/>
<path d="M266.941 309.117L270.431 325.403C271.336 329.628 275.07 332.647 279.39 332.647H292.978C295.653 332.647 298.195 331.478 299.936 329.447L302.235 326.764" stroke="#F5F5F5" stroke-width="3.0544"/>
<path d="M109.211 315.31L155.106 336.711" stroke="#F5F5F5" stroke-width="4.21995" stroke-linecap="round"/>
<path d="M109.371 336.56L155.266 357.961" stroke="#F5F5F5" stroke-width="4.21995" stroke-linecap="round"/>
<path d="M372.695 358.112L418.59 336.711" stroke="#F5F5F5" stroke-width="4.21995" stroke-linecap="round"/>
<path d="M372.854 336.862L418.749 315.46" stroke="#F5F5F5" stroke-width="4.21995" stroke-linecap="round"/>
</svg>
