<svg width="65" height="65" viewBox="0 0 65 65" fill="none" xmlns="http://www.w3.org/2000/svg">
<g id="Group 32">
<circle id="Ellipse 29" cx="32.5" cy="32.5" r="30.5" fill="#199493" stroke="#F7A1A4" stroke-width="4"/>
<g id="Cabe&#195;&#167;a">
<path id="Vector 27" d="M15.9932 46.1106C9.76137 41.3392 6.60793 14.7341 15.9931 15.0743C21.8736 15.2874 27.4319 29.1337 27.4319 29.9293C27.4319 30.7248 38.1701 30.725 38.1701 29.9295C38.1701 29.134 43.6891 16.4653 49.1419 16.4007C58.0756 16.295 55.5157 40.8092 49.1418 46.1109C42.768 51.4125 22.2251 50.882 15.9932 46.1106Z" fill="#F5F5F5"/>
<path id="Subtract" fill-rule="evenodd" clip-rule="evenodd" d="M20.1616 19.7713L17.9824 17.7569L16.2875 17.1814L14.1084 18.3323L14.1087 18.3324L12.8981 20.3468L12.4138 24.6633L12.5927 30.1308H25.7313V29.5553L25.863 29.3987L23.3094 24.0878L20.1616 19.7713Z" fill="#F5F5F5"/>
<path id="Subtract_2" fill-rule="evenodd" clip-rule="evenodd" d="M45.1228 20.6109L47.2249 18.7644L48.86 18.2368L50.9621 19.292H50.9626L50.9623 19.292L52.1302 21.1385L52.5973 25.0953L52.4247 30.1072H52.3641V30.097H39.7507V29.5797L39.6232 29.4356L42.0863 24.5677L45.1228 20.6109Z" fill="#F5F5F5"/>
<ellipse id="Ellipse 6" cx="23.7953" cy="36.7016" rx="2.11028" ry="3.16543" fill="#199493"/>
<ellipse id="Ellipse 7" cx="41.7327" cy="36.7016" rx="2.11028" ry="3.16543" fill="#199493"/>
<path id="Polygon 16" d="M32.7448 41.4495C31.8123 41.4493 29.94 37.2291 30.4073 36.7016C30.8745 36.174 34.8452 36.174 35.2629 36.7002C35.6806 37.2263 33.6773 41.4497 32.7448 41.4495Z" fill="#F5F5F5"/>
<path id="Polygon 17" d="M32.7123 39.8672C32.3628 39.8671 31.6611 38.1357 31.8362 37.9193C32.0113 37.7029 33.4994 37.7029 33.656 37.9188C33.8126 38.1347 33.0618 39.8673 32.7123 39.8672Z" fill="#F5F5F5"/>
<path id="Vector 28" d="M32.7636 41.4495L32.4506 42.9101C32.3694 43.289 32.0345 43.5597 31.647 43.5597H30.4283C30.1884 43.5597 29.9605 43.4549 29.8044 43.2728L29.5981 43.0322" stroke="#199493" stroke-width="0.27394"/>
<path id="Vector 29" d="M32.7638 41.4497L33.0768 42.9104C33.158 43.2893 33.4928 43.56 33.8804 43.56H35.099C35.3389 43.56 35.5669 43.4552 35.723 43.273L35.9292 43.0324" stroke="#199493" stroke-width="0.27394"/>
<path id="Line 22" d="M18.6177 42.0051L22.7339 43.9245" stroke="#199493" stroke-width="0.378475" stroke-linecap="round"/>
<path id="Line 23" d="M18.6317 43.9109L22.7479 45.8303" stroke="#199493" stroke-width="0.378475" stroke-linecap="round"/>
<path id="Line 24" d="M42.2485 45.8438L46.3647 43.9243" stroke="#199493" stroke-width="0.378475" stroke-linecap="round"/>
<path id="Line 25" d="M42.2629 43.938L46.3791 42.0186" stroke="#199493" stroke-width="0.378475" stroke-linecap="round"/>
</g>
</g>
</svg>
