<svg width="65" height="65" viewBox="0 0 65 65" fill="none" xmlns="http://www.w3.org/2000/svg">
<circle cx="32.5" cy="32.5" r="30.5" stroke="#F7A1A4" stroke-width="4"/>
<path fill-rule="evenodd" clip-rule="evenodd" d="M20.1616 19.7713L17.9824 17.7569L16.2875 17.1814L14.1084 18.3323L14.1087 18.3324L12.8981 20.3468L12.4138 24.6633L12.5927 30.1308H25.7313V29.5553L25.863 29.3987L23.3094 24.0878L20.1616 19.7713Z" fill="#F5F5F5"/>
<path fill-rule="evenodd" clip-rule="evenodd" d="M45.1228 20.6109L47.2249 18.7644L48.86 18.2368L50.9621 19.292H50.9626L50.9623 19.292L52.1302 21.1385L52.5973 25.0953L52.4247 30.1072H52.3641V30.097H39.7507V29.5797L39.6232 29.4356L42.0863 24.5677L45.1228 20.6109Z" fill="#F5F5F5"/>
<path d="M32.7448 41.4495C31.8123 41.4493 29.94 37.2291 30.4073 36.7016C30.8745 36.174 34.8452 36.174 35.2629 36.7002C35.6806 37.2263 33.6773 41.4497 32.7448 41.4495Z" fill="#F5F5F5"/>
<path d="M32.7123 39.8672C32.3628 39.8671 31.6611 38.1357 31.8362 37.9193C32.0113 37.7029 33.4994 37.7029 33.656 37.9188C33.8126 38.1347 33.0618 39.8673 32.7123 39.8672Z" fill="#F5F5F5"/>
<path fill-rule="evenodd" clip-rule="evenodd" d="M15.9932 46.1106C9.76137 41.3392 6.60793 14.7341 15.9931 15.0743C21.8736 15.2874 27.4319 29.1337 27.4319 29.9293C27.4319 30.7248 38.1701 30.725 38.1701 29.9295C38.1701 29.134 43.6891 16.4653 49.1419 16.4007C58.0756 16.295 55.5157 40.8092 49.1418 46.1109C42.768 51.4125 22.2251 50.882 15.9932 46.1106ZM25.9056 36.7016C25.9056 38.4498 24.9608 39.867 23.7953 39.867C22.6299 39.867 21.6851 38.4498 21.6851 36.7016C21.6851 34.9533 22.6299 33.5361 23.7953 33.5361C24.9608 33.5361 25.9056 34.9533 25.9056 36.7016ZM41.7327 39.867C42.8982 39.867 43.843 38.4498 43.843 36.7016C43.843 34.9533 42.8982 33.5361 41.7327 33.5361C40.5672 33.5361 39.6224 34.9533 39.6224 36.7016C39.6224 38.4498 40.5672 39.867 41.7327 39.867ZM32.3166 42.8814L32.6296 41.4208L32.7642 41.4496L32.8977 41.421L33.2107 42.8817C33.2784 43.1974 33.5574 43.423 33.8804 43.423H35.099C35.2989 43.423 35.4889 43.3357 35.619 43.1839L35.8252 42.9433L36.0332 43.1216L35.827 43.3621C35.6448 43.5747 35.3789 43.697 35.099 43.697H33.8804C33.4282 43.697 33.0376 43.3811 32.9428 42.9391L32.7636 42.1028L32.5845 42.9388C32.4898 43.3809 32.0991 43.6967 31.647 43.6967H30.4283C30.1484 43.6967 29.8825 43.5744 29.7004 43.3619L29.4941 43.1213L29.7021 42.943L29.9084 43.1836C30.0385 43.3354 30.2284 43.4228 30.4283 43.4228H31.647C31.9699 43.4228 32.249 43.1972 32.3166 42.8814ZM18.4462 41.9252C18.4903 41.8304 18.6029 41.7894 18.6977 41.8336L22.8138 43.753C22.9085 43.7972 22.9495 43.9098 22.9054 44.0045C22.8612 44.0992 22.7486 44.1402 22.6539 44.096L18.5377 42.1766C18.443 42.1325 18.402 42.0199 18.4462 41.9252ZM18.7117 43.7394C18.617 43.6952 18.5044 43.7362 18.4602 43.8309C18.416 43.9256 18.457 44.0382 18.5517 44.0824L22.6679 46.0018C22.7626 46.046 22.8752 46.005 22.9194 45.9103C22.9636 45.8155 22.9226 45.703 22.8279 45.6588L18.7117 43.7394ZM42.077 45.9237C42.1212 46.0184 42.2338 46.0594 42.3285 46.0153L46.4447 44.0959C46.5394 44.0517 46.5804 43.9391 46.5362 43.8444C46.4921 43.7496 46.3795 43.7087 46.2847 43.7528L42.1686 45.6722C42.0738 45.7164 42.0329 45.829 42.077 45.9237ZM42.3429 44.1095C42.2482 44.1537 42.1356 44.1127 42.0914 44.018C42.0473 43.9232 42.0882 43.8106 42.183 43.7665L46.2991 41.8471C46.3939 41.8029 46.5065 41.8439 46.5506 41.9386C46.5948 42.0333 46.5538 42.1459 46.4591 42.1901L42.3429 44.1095Z" fill="#F5F5F5"/>
</svg>
