<svg width="68" height="68" viewBox="0 0 68 68" fill="none" xmlns="http://www.w3.org/2000/svg">
<path d="M10.2001 18.7001H25.5001V9.3501H41.6501L42.5001 18.7001H57.8001V57.8001H10.2001V18.7001Z" fill="white"/>
<path d="M56.6667 17.0001H45.3334V11.3334C45.3334 8.21675 42.7834 5.66675 39.6667 5.66675H28.3334C25.2167 5.66675 22.6667 8.21675 22.6667 11.3334V17.0001H11.3334C8.21675 17.0001 5.66675 19.5501 5.66675 22.6667V56.6667C5.66675 59.7834 8.21675 62.3334 11.3334 62.3334H56.6667C59.7834 62.3334 62.3334 59.7834 62.3334 56.6667V22.6667C62.3334 19.5501 59.7834 17.0001 56.6667 17.0001ZM28.3334 11.3334H39.6667V17.0001H28.3334V11.3334ZM56.6667 56.6667H11.3334V22.6667H56.6667V56.6667Z" fill="#F7A1A4"/>
<path d="M36.8334 28.3334H31.1667V36.8334H22.6667V42.5001H31.1667V51.0001H36.8334V42.5001H45.3334V36.8334H36.8334V28.3334Z" fill="#F7A1A4"/>
</svg>
